<?xml version="1.0" encoding="UTF-8" standalone="no"?>
<!-- Created with Inkscape (http://www.inkscape.org/) -->

<svg
   xmlns:dc="http://purl.org/dc/elements/1.1/"
   xmlns:cc="http://creativecommons.org/ns#"
   xmlns:rdf="http://www.w3.org/1999/02/22-rdf-syntax-ns#"
   xmlns:svg="http://www.w3.org/2000/svg"
   xmlns="http://www.w3.org/2000/svg"
   xmlns:sodipodi="http://sodipodi.sourceforge.net/DTD/sodipodi-0.dtd"
   xmlns:inkscape="http://www.inkscape.org/namespaces/inkscape"
   width="210mm"
   height="297mm"
   viewBox="0 0 210 297"
   version="1.1"
   id="svg65"
   inkscape:version="0.92.3 (2405546, 2018-03-11)"
   sodipodi:docname="stackedit.svg">
  <defs
     id="defs59">
    <clipPath
       id="_clip1">
      <path
         inkscape:connector-curvature="0"
         d="m 159.997,40.003 c 0,-22.076 -17.923,-39.999 -39.999,-39.999 H 39.999 C 17.923,0.004 0,17.927 0,40.003 v 79.998 C 0,142.077 17.923,160 39.999,160 h 79.999 c 22.076,0 39.999,-17.923 39.999,-39.999 z"
         id="path6" />
    </clipPath>
    <linearGradient
       id="_Linear2"
       x1="0"
       y1="0"
       x2="1"
       y2="0"
       gradientUnits="userSpaceOnUse"
       gradientTransform="matrix(-20.0015,-20.0018,20.0018,-20.0015,159.997,20.0053)">
      <stop
         offset="0"
         style="stop-color:#66aefd;stop-opacity:1"
         id="stop31" />
      <stop
         offset="1"
         style="stop-color:#ffd700;stop-opacity:1"
         id="stop33" />
    </linearGradient>
    <linearGradient
       id="_Linear3"
       x1="0"
       y1="0"
       x2="1"
       y2="0"
       gradientUnits="userSpaceOnUse"
       gradientTransform="matrix(20.0018,-20.0015,20.0015,20.0018,140.004,160.018)">
      <stop
         offset="0"
         style="stop-color:#ff8a00;stop-opacity:1"
         id="stop36" />
      <stop
         offset="1"
         style="stop-color:#66aefd;stop-opacity:1"
         id="stop38" />
    </linearGradient>
    <linearGradient
       id="_Linear4"
       x1="0"
       y1="0"
       x2="1"
       y2="0"
       gradientUnits="userSpaceOnUse"
       gradientTransform="matrix(20.0015,20.0018,-20.0018,20.0015,-0.0173131,140.007)">
      <stop
         offset="0"
         style="stop-color:#a5c700;stop-opacity:1"
         id="stop41" />
      <stop
         offset="1"
         style="stop-color:#ff8a00;stop-opacity:1"
         id="stop43" />
    </linearGradient>
    <linearGradient
       id="_Linear5"
       x1="0"
       y1="0"
       x2="1"
       y2="0"
       gradientUnits="userSpaceOnUse"
       gradientTransform="matrix(-20.0018,20.0015,-20.0015,-20.0018,19.9845,0.00353669)">
      <stop
         offset="0"
         style="stop-color:#ffd700;stop-opacity:1"
         id="stop46" />
      <stop
         offset="1"
         style="stop-color:#a5c700;stop-opacity:1"
         id="stop48" />
    </linearGradient>
  </defs>
  <sodipodi:namedview
     id="base"
     pagecolor="#ffffff"
     bordercolor="#666666"
     borderopacity="1.0"
     inkscape:pageopacity="0.0"
     inkscape:pageshadow="2"
     inkscape:zoom="0.49497475"
     inkscape:cx="355.23594"
     inkscape:cy="568.72666"
     inkscape:document-units="mm"
     inkscape:current-layer="layer1"
     showgrid="false"
     inkscape:window-width="1920"
     inkscape:window-height="1001"
     inkscape:window-x="-9"
     inkscape:window-y="-9"
     inkscape:window-maximized="1" />
  <metadata
     id="metadata62">
    <rdf:RDF>
      <cc:Work
         rdf:about="">
        <dc:format>image/svg+xml</dc:format>
        <dc:type
           rdf:resource="http://purl.org/dc/dcmitype/StillImage" />
        <dc:title></dc:title>
      </cc:Work>
    </rdf:RDF>
  </metadata>
  <g
     inkscape:label="Layer 1"
     inkscape:groupmode="layer"
     id="layer1">
    <path
       inkscape:connector-curvature="0"
       d="m 209.62521,96.8616 c 0,-28.892207 -23.45697,-52.349168 -52.34919,-52.349168 H 52.576352 c -28.89223,0 -52.34916948,23.456961 -52.34916948,52.349168 v 104.69837 c 0,28.89221 23.45693948,52.34916 52.34916948,52.34916 H 157.27602 c 28.89222,0 52.34919,-23.45695 52.34919,-52.34916 z"
       style="clip-rule:evenodd;fill:none;fill-rule:evenodd;stroke-width:1.30876195;stroke-linejoin:round;stroke-miterlimit:1.41420996"
       id="path4" />
    <g
       transform="matrix(1.3134868,0,0,1.3134868,0.22718256,41.861346)"
       style="clip-rule:evenodd;fill-rule:evenodd;stroke-linejoin:round;stroke-miterlimit:1.41420996"
       clip-path="url(#_clip1)"
       id="g25">
      <path
         inkscape:connector-curvature="0"
         d="M 159.997,0.004 H -0.017 L 79.99,80.011 Z"
         style="fill:#ffd700"
         id="path9" />
      <path
         inkscape:connector-curvature="0"
         d="M -0.017,0.004 V 160.018 L 79.99,80.01 Z"
         style="fill:#a5c700"
         id="path11" />
      <path
         inkscape:connector-curvature="0"
         d="M -0.017,160.018 H 159.997 L 79.99,80.011 Z"
         style="fill:#ff8a00"
         id="path13" />
      <path
         inkscape:connector-curvature="0"
         d="M 159.997,160.018 V 0.004 L 79.99,80.011 Z"
         style="fill:#66aefd"
         id="path15" />
      <path
         inkscape:connector-curvature="0"
         d="M 149.996,-9.997 79.99,59.991 99.992,80.011 169.998,10.004 Z"
         style="fill:url(#_Linear2)"
         id="path17" />
      <path
         inkscape:connector-curvature="0"
         d="m 170.006,150.017 -69.988,-70.006 -20.02,20.002 70.007,70.006 z"
         style="fill:url(#_Linear3)"
         id="path19" />
      <path
         inkscape:connector-curvature="0"
         d="M 9.983,170.01 79.99,100.021 59.988,80.002 -10.018,150.008 Z"
         style="fill:url(#_Linear4)"
         id="path21" />
      <path
         inkscape:connector-curvature="0"
         d="M -10.018,10.004 59.97,80.011 79.99,60.009 9.984,-9.997 Z"
         style="fill:url(#_Linear5)"
         id="path23" />
    </g>
    <path
       inkscape:connector-curvature="0"
       d="m 190.01469,95.556761 c 0,-19.15501 -15.552,-34.707022 -34.70709,-34.707022 H 54.566986 c -19.15505,0 -34.707064,15.552012 -34.707064,34.707022 V 196.29744 c 0,19.15501 15.552014,34.70573 34.707064,34.70573 H 155.3076 c 19.15509,0 34.70709,-15.55072 34.70709,-34.70573 z"
       style="clip-rule:evenodd;fill:#ffffff;fill-rule:evenodd;stroke-width:1.30876195;stroke-linejoin:round;stroke-miterlimit:1.41420996"
       id="path27" />
    <path
       inkscape:connector-curvature="0"
       d="M 40.654833,96.95846 H 52.610376 V 81.00204 H 64.811957 V 96.95846 H 79.616684 V 81.00204 h 12.201581 v 15.95642 h 11.956885 v 14.75235 H 91.818265 v 16.59641 H 103.77515 V 143.0596 H 91.818265 v 15.95643 H 79.616684 V 143.0596 H 64.811957 v 15.95643 H 52.610376 V 143.0596 H 40.654833 V 128.30722 H 52.610376 V 111.71081 H 40.654833 Z m 24.157124,14.75235 v 16.59641 h 14.804727 v -16.59641 z"
       style="clip-rule:evenodd;fill:#737373;fill-rule:evenodd;stroke-width:1.30876195;stroke-linejoin:round;stroke-miterlimit:1.41420996"
       id="path29" />
  </g>
</svg>
